<?xml version="1.0" standalone="no"?>
<!DOCTYPE svg PUBLIC "-//W3C//DTD SVG 20010904//EN"
 "http://www.w3.org/TR/2001/REC-SVG-20010904/DTD/svg10.dtd">
<svg version="1.0" xmlns="http://www.w3.org/2000/svg"
 width="1280.000000pt" height="800.000000pt" viewBox="0 0 1280.000000 800.000000"
 preserveAspectRatio="xMidYMid meet">
<metadata>
Created by potrace 1.12, written by Peter Selinger 2001-2015
</metadata>
<g transform="translate(0.000000,800.000000) scale(0.100000,-0.100000)"
fill="#000000" stroke="none">
<path d="M0 6223 c0 -978 4 -1772 8 -1765 10 15 46 -20 57 -55 3 -13 12 -23
19 -23 7 0 25 -14 42 -31 16 -18 71 -65 122 -106 51 -41 124 -106 162 -144 38
-38 76 -69 84 -69 8 0 49 -27 90 -60 42 -33 85 -60 95 -60 11 0 25 -9 31 -19
7 -13 29 -23 67 -31 32 -7 66 -16 75 -21 10 -5 28 -9 41 -9 13 0 41 -13 63
-29 24 -17 58 -31 88 -35 27 -3 55 -11 62 -17 9 -7 27 -3 67 15 30 14 61 26
70 26 9 0 33 11 53 25 22 15 45 23 58 20 25 -6 30 -2 74 49 29 33 33 44 27 72
-3 21 -2 34 5 34 5 0 10 -3 10 -8 0 -4 13 -22 30 -40 16 -18 30 -40 30 -47 0
-27 108 -265 145 -319 20 -29 21 -37 10 -46 -8 -7 -17 -22 -21 -33 -3 -12 -17
-46 -30 -75 -13 -29 -49 -132 -80 -230 -49 -156 -56 -188 -57 -268 -1 -52 3
-101 10 -115 6 -13 21 -46 33 -72 28 -60 106 -147 171 -189 36 -23 49 -38 49
-55 0 -31 -24 -39 -74 -24 -23 7 -80 19 -127 26 -103 16 -231 58 -273 90 -42
32 -86 43 -86 21 0 -19 -4 -20 -30 -4 -26 17 -29 11 -21 -43 9 -54 53 -117 89
-126 14 -3 44 -18 66 -33 23 -15 70 -34 106 -44 36 -9 106 -27 155 -41 50 -14
127 -28 172 -32 82 -6 83 -6 109 -44 15 -22 30 -39 33 -39 4 0 51 -43 106 -95
54 -52 102 -95 106 -95 4 0 38 -18 76 -39 l69 -39 72 13 c110 21 211 92 228
161 4 14 9 23 13 21 62 -34 88 -39 131 -28 70 18 111 58 131 124 17 58 16 67
-10 67 -15 0 -51 63 -51 88 0 6 -19 21 -42 33 -54 27 -78 48 -78 68 0 30 89
150 136 183 25 18 62 47 82 63 60 49 124 91 175 115 30 14 47 29 47 40 0 30
27 45 56 31 25 -11 74 -6 74 9 0 4 13 23 30 41 34 39 36 49 15 89 l-15 30 28
-6 c27 -5 31 -2 46 35 9 23 16 49 16 59 1 9 19 31 41 47 22 17 66 50 97 75 31
25 73 55 92 67 35 21 146 57 230 74 25 5 66 16 92 25 26 8 60 14 75 12 24 -2
29 -8 31 -36 2 -18 -2 -40 -9 -48 -9 -11 -8 -18 5 -32 9 -10 16 -25 16 -33 1
-27 40 -133 58 -152 26 -30 76 -47 134 -47 102 1 180 59 192 144 6 38 2 56
-29 124 l-37 80 21 21 c12 12 21 31 21 42 0 18 4 20 28 15 50 -12 56 -11 66 9
21 39 41 60 69 72 15 7 27 19 27 26 0 7 11 23 25 35 14 12 25 30 25 41 0 10 9
30 20 44 11 14 20 32 20 40 0 8 11 25 25 38 13 13 25 32 25 42 0 9 5 17 10 17
6 0 15 12 20 28 17 47 33 75 68 124 18 26 41 75 52 110 10 35 28 90 40 123 42
120 63 266 40 280 -6 4 -9 36 -8 73 3 86 -15 126 -58 130 -35 3 -88 -33 -80
-54 4 -9 -2 -14 -15 -14 -18 0 -20 -4 -14 -27 3 -15 18 -51 32 -80 29 -59 30
-52 -34 -238 -49 -138 -67 -169 -114 -190 -20 -9 -42 -28 -48 -42 -17 -37 -29
-20 -36 52 -4 36 -11 68 -16 71 -16 9 -10 39 11 57 11 9 20 26 20 38 0 18 -2
19 -15 9 -13 -11 -15 -7 -15 25 0 20 -7 52 -16 71 -15 32 -15 36 1 54 10 11
15 26 12 35 -7 17 -52 21 -62 5 -3 -5 -12 -10 -19 -10 -18 0 -8 60 14 85 29
34 60 91 60 111 0 13 -10 4 -30 -25 -59 -90 -150 -105 -150 -25 0 13 -8 24
-20 27 -11 3 -20 12 -20 21 0 9 -14 47 -31 84 -26 55 -31 81 -32 147 -2 69 -6
85 -28 115 -55 74 -64 107 -64 225 1 61 6 126 13 145 7 20 14 76 16 125 17
373 18 404 6 439 -9 29 -9 47 1 86 16 62 2 100 -35 100 -35 0 -48 29 -44 98
l3 57 47 10 c54 12 84 35 91 73 4 20 17 32 46 45 23 10 41 24 41 31 0 8 7 20
16 27 13 11 15 26 9 89 -4 41 -12 84 -17 95 -8 14 -8 20 2 23 8 3 25 17 39 31
36 35 131 79 191 87 34 5 61 2 88 -9 38 -15 43 -15 111 8 86 29 259 37 357 15
54 -12 66 -11 110 4 27 10 63 20 79 23 42 8 67 30 135 119 33 42 70 84 83 93
13 9 32 24 41 34 23 23 30 22 71 -14 46 -41 103 -49 129 -20 24 26 48 27 64 1
17 -28 38 -25 64 10 12 16 29 30 38 30 9 0 20 3 24 7 4 4 46 7 93 8 73 0 90
-3 109 -20 57 -51 93 -75 111 -75 10 0 29 -7 42 -16 18 -13 28 -14 48 -5 23
11 29 8 62 -27 37 -41 92 -62 114 -44 22 18 103 25 140 11 30 -11 40 -10 78 9
24 11 63 26 86 32 23 6 45 14 47 19 3 5 16 11 29 15 12 3 60 28 106 56 46 27
94 50 105 50 12 0 45 9 74 20 58 22 142 26 160 8 7 -7 52 -13 114 -14 57 -2
123 -6 147 -9 26 -4 56 -1 73 6 49 20 196 -6 261 -47 50 -32 52 -32 80 -16 26
16 29 16 38 0 13 -23 86 -56 136 -62 23 -2 49 -10 57 -18 9 -7 29 -25 46 -40
24 -23 39 -28 78 -28 26 0 57 6 68 14 11 8 41 25 65 39 24 13 89 48 144 78
l100 54 116 0 116 0 59 -40 c82 -56 98 -61 191 -67 l82 -6 131 64 c73 35 142
64 155 64 13 0 50 -7 81 -15 55 -14 59 -14 80 6 l22 20 47 -35 c43 -34 48 -35
73 -22 15 7 49 14 75 14 26 1 52 4 58 8 6 3 45 8 87 10 100 5 111 10 128 51
12 26 19 33 32 28 9 -4 29 -11 44 -17 15 -5 30 -17 33 -26 3 -10 22 -28 42
-42 21 -14 66 -47 100 -75 33 -27 87 -63 119 -79 52 -27 69 -30 156 -30 96 -1
97 -1 131 32 37 36 64 35 69 -1 2 -18 9 -22 37 -20 42 2 70 -28 71 -74 0 -22
7 -36 20 -43 11 -6 20 -17 20 -25 0 -8 9 -15 20 -15 27 0 57 -18 95 -56 16
-17 42 -34 58 -38 15 -3 27 -12 27 -20 0 -22 24 -38 38 -24 8 8 21 7 49 -4 21
-9 46 -19 56 -22 10 -3 17 -11 15 -18 -8 -41 65 -85 96 -59 21 17 27 -11 20
-88 -7 -82 -27 -132 -77 -193 -28 -34 -48 -49 -73 -54 -26 -5 -42 -17 -63 -48
-16 -23 -36 -48 -45 -55 -20 -17 -21 -55 0 -71 30 -26 37 -56 40 -169 1 -76 6
-116 15 -121 7 -5 9 -18 5 -34 -4 -17 -1 -35 10 -51 11 -16 14 -34 10 -53 -29
-120 -30 -112 14 -156 l40 -39 30 28 c17 16 30 39 30 51 0 28 24 47 48 40 13
-4 22 -1 26 9 9 24 49 18 121 -20 36 -20 71 -33 76 -29 6 3 18 -1 28 -10 10
-9 25 -14 34 -10 14 5 72 -27 88 -49 8 -11 64 -25 149 -37 43 -6 103 -19 133
-30 59 -21 152 -27 162 -11 3 5 31 13 63 17 56 6 112 27 112 42 0 4 15 16 33
27 24 15 49 19 105 18 l72 -2 0 1255 0 1254 -6400 0 -6400 0 0 -1777z m3886
36 c10 -21 14 -43 10 -64 -4 -21 0 -49 10 -74 15 -38 15 -51 0 -174 -8 -72
-20 -186 -26 -252 -6 -66 -15 -142 -20 -170 -6 -27 -11 -116 -13 -197 -1 -101
-6 -151 -14 -160 -8 -7 -13 -40 -13 -83 0 -63 -23 -246 -35 -286 -6 -17 -234
-96 -343 -118 -29 -6 -66 -18 -82 -26 -16 -8 -31 -15 -33 -15 -8 0 -36 140
-48 240 -19 145 -13 367 10 394 20 24 -6 102 -45 135 -39 33 -58 67 -59 109
-1 24 -13 44 -45 77 -41 42 -43 46 -46 117 -2 40 -6 84 -8 98 -4 29 -53 149
-68 168 -18 21 1 27 31 9 24 -14 48 -16 147 -12 65 3 123 10 128 15 6 6 18 10
27 10 9 0 22 7 29 14 6 8 28 20 48 26 45 14 105 41 112 49 8 10 148 91 157 91
5 0 34 22 64 48 80 72 101 77 125 31z m-1328 -959 c7 -11 17 -20 24 -20 6 0
36 -23 67 -51 31 -28 70 -63 86 -78 36 -33 77 -51 112 -51 15 0 41 -14 64 -35
45 -40 69 -43 110 -14 47 33 51 14 12 -64 l-36 -72 16 -176 c16 -164 51 -339
80 -394 29 -56 87 -67 273 -54 82 7 165 12 184 13 20 1 51 9 71 18 19 9 56 23
81 29 58 16 77 3 97 -66 8 -26 19 -49 25 -51 11 -4 18 -314 7 -314 -3 0 -15
10 -28 22 -18 17 -26 19 -35 10 -9 -9 -3 -21 26 -50 35 -37 37 -42 34 -98 l-3
-58 -67 -56 c-37 -31 -109 -78 -160 -104 -51 -26 -119 -64 -152 -84 -84 -51
-203 -174 -279 -288 -37 -54 -74 -109 -84 -122 -26 -32 -74 -62 -100 -62 -22
0 -104 -35 -249 -106 -63 -31 -236 -162 -273 -207 -22 -27 -55 -20 -109 23
-28 23 -61 40 -75 40 -23 0 -27 6 -39 63 -11 51 -17 63 -35 65 -11 2 -29 12
-39 23 -9 10 -24 19 -32 19 -10 0 -13 8 -9 28 6 30 34 115 48 147 38 86 129
360 129 390 0 14 14 61 30 104 17 42 34 109 40 147 11 82 34 188 49 227 17 43
14 126 -4 133 -21 9 -19 24 4 24 12 0 40 24 67 55 30 34 56 55 69 55 35 0 57
23 53 55 -2 23 -10 31 -34 38 -30 9 -31 10 -19 36 41 83 53 209 25 261 -42 78
-59 121 -54 135 8 20 14 19 52 -14 29 -25 38 -28 65 -20 17 5 35 13 41 19 14
14 12 152 -3 205 -6 22 -11 66 -11 97 0 55 -2 60 -58 125 -70 81 -95 123 -74
123 4 0 13 -9 20 -20z m-526 -890 c38 -35 66 -38 97 -9 19 18 30 20 68 15 46
-6 113 -40 113 -57 0 -5 -22 -9 -50 -9 -52 0 -100 -16 -100 -34 0 -6 7 -29 15
-51 19 -52 19 -108 0 -175 -9 -30 -22 -94 -30 -142 -7 -48 -18 -95 -23 -105
-17 -31 -52 -190 -52 -232 0 -25 -9 -53 -22 -74 -13 -19 -45 -71 -73 -115 -55
-90 -80 -106 -69 -44 4 20 13 54 20 76 8 21 14 50 14 63 0 51 -34 138 -80 207
-67 101 -170 272 -170 284 0 5 -10 21 -21 36 -26 33 -21 40 31 38 30 -1 43 3
55 21 46 65 65 100 65 118 0 21 19 54 58 104 64 81 96 115 108 115 7 0 28 -13
46 -30z"/>
</g>
</svg>
